<svg width="150" height="150" viewBox="0 0 150 150" fill="none" xmlns="http://www.w3.org/2000/svg">
<g clip-path="url(#clip0)">
<path d="M75 150C116.309 150 150 116.309 150 75C150 33.6914 116.309 0 75 0C33.6914 0 0 33.6914 0 75C0 116.309 33.6914 150 75 150Z" fill="#FE8776"/>
<path d="M150.301 74.8232C150.301 116.132 116.61 149.823 75.3012 149.823C46.6192 149.823 21.6094 133.581 9 109.823L125.301 19C140.632 32.7488 150.301 52.6929 150.301 74.8232Z" fill="#F4705D"/>
<path d="M64.043 103.766L60.8496 115.162L50.0684 123.336V125.094H75H99.9609V123.336L89.1797 115.162L85.9863 103.766L75.0293 103.619L64.043 103.766Z" fill="#DEDEDE"/>
<path d="M50.0391 124.215V125.094H75H99.9609V124.215H50.0391Z" fill="white"/>
<path d="M19.3359 15.4688H130.664C134.326 15.4688 137.314 18.457 137.314 22.1191V90.7031H12.6855V22.1191C12.6855 18.457 15.6738 15.4688 19.3359 15.4688Z" fill="#274684"/>
<path d="M17.1973 86.1914H132.803V22.1191C132.803 20.9473 131.836 19.9805 130.664 19.9805H19.3359C18.1641 19.9805 17.1973 20.9473 17.1973 22.1191V86.1914Z" fill="white"/>
<path d="M132.803 19.9219H17.1973V31.4355H132.803V19.9219Z" fill="white" stroke="#D7DAE0" stroke-miterlimit="10"/>
<path d="M137.314 90.7031V97.9687C137.314 101.631 134.004 104.619 129.99 104.619H20.0098C15.9668 104.619 12.6855 101.631 12.6855 97.9687V90.7031H137.314Z" fill="white"/>
<path d="M75 99.4629C76.1719 99.4629 77.1094 98.5254 77.1094 97.3535C77.1094 96.1816 76.1719 95.2441 75 95.2441C73.8574 95.2441 72.8906 96.1816 72.8906 97.3535C72.8906 98.5254 73.8574 99.4629 75 99.4629Z" fill="#D3D3D3"/>
<path d="M25.2832 29.0039H21.5918C20.7715 29.0039 20.127 28.3594 20.127 27.5391V23.8184C20.127 22.998 20.7715 22.3535 21.5918 22.3535H25.3125C26.1328 22.3535 26.7773 22.998 26.7773 23.8184V27.5391C26.748 28.3594 26.1035 29.0039 25.2832 29.0039Z" fill="#CCCCCC"/>
<path d="M63.3398 26.1621H53.4375C53.2324 26.1621 53.0566 25.9863 53.0566 25.7812C53.0566 25.459 53.3203 25.1953 53.6426 25.1953H63.1641C63.4863 25.1953 63.75 25.459 63.75 25.7812C63.7207 25.9863 63.5449 26.1621 63.3398 26.1621Z" fill="#CCCCCC"/>
<path d="M76.6113 26.1621H66.709C66.5039 26.1621 66.3281 25.9863 66.3281 25.7812C66.3281 25.459 66.5918 25.1953 66.9141 25.1953H76.4355C76.7578 25.1953 77.0215 25.459 77.0215 25.7812C76.9922 25.9863 76.8164 26.1621 76.6113 26.1621Z" fill="#CCCCCC"/>
<path d="M89.8828 26.1621H79.9805C79.7754 26.1621 79.5996 25.9863 79.5996 25.7812C79.5996 25.459 79.8633 25.1953 80.1855 25.1953H89.707C90.0293 25.1953 90.293 25.459 90.293 25.7812C90.293 25.9863 90.1172 26.1621 89.8828 26.1621Z" fill="#CCCCCC"/>
<path d="M103.184 26.1621H93.2812C93.0762 26.1621 92.9004 25.9863 92.9004 25.7812C92.9004 25.459 93.1641 25.1953 93.4863 25.1953H103.008C103.33 25.1953 103.594 25.459 103.594 25.7812C103.564 25.9863 103.389 26.1621 103.184 26.1621Z" fill="#CCCCCC"/>
<path d="M128.174 27.9492H120.264C119.443 27.9492 118.799 27.3047 118.799 26.4844V24.873C118.799 24.0527 119.443 23.4082 120.264 23.4082H128.174C128.994 23.4082 129.639 24.0527 129.639 24.873V26.4844C129.639 27.3047 128.994 27.9492 128.174 27.9492Z" stroke="#CCCCCC" stroke-miterlimit="10"/>
<path d="M113.379 22.9981V23.4668H114.551C114.551 23.4668 114.932 23.4668 114.932 23.8477V28.0957C114.932 28.4766 114.551 28.4766 114.551 28.4766H109.131C108.75 28.4766 108.75 28.0957 108.75 28.0957V23.8477C108.75 23.8477 108.75 23.4668 109.131 23.4668H110.303V22.9981C110.303 22.6172 110.479 22.3242 111.27 22.3242H112.441C113.232 22.2949 113.379 22.6172 113.379 22.9981ZM112.617 22.7051H111.064C110.83 22.7051 110.684 22.8223 110.684 23.086V23.4668H112.969V23.086C112.998 22.8223 112.852 22.7051 112.617 22.7051ZM109.16 25.0196V28.0957H114.551V25.0196H113.789V25.4004C113.789 25.5469 113.73 25.6348 113.613 25.6348C113.496 25.6348 113.408 25.5469 113.408 25.4004V25.0196C113.408 25.0196 113.145 25.0489 113.145 24.8438C113.145 24.6387 113.408 24.6387 113.408 24.6387V24.4629C113.408 24.4629 113.408 24.2871 113.613 24.2871C113.789 24.2871 113.789 24.4629 113.789 24.4629V24.6387H114.551V23.8477H109.16V24.6387H109.541V24.4629C109.541 24.4629 109.541 24.2871 109.746 24.2871C109.922 24.2871 109.922 24.4629 109.922 24.4629V24.6387H112.412C112.471 24.6387 112.617 24.668 112.617 24.8438C112.617 25.0196 112.471 25.0196 112.441 25.0196H109.951V25.3418C109.951 25.4883 109.893 25.6348 109.775 25.6348C109.658 25.6348 109.57 25.5176 109.57 25.3418V25.0196H109.16ZM112.441 25.6641V25.9864H112.764C112.91 25.9864 113.027 26.1035 113.027 26.25V26.8946C113.027 27.041 112.91 27.1582 112.764 27.1582H112.441V27.4512C112.441 27.5977 112.324 27.7149 112.178 27.7149H111.562C111.416 27.7149 111.299 27.5977 111.299 27.4512V27.1582H110.977C110.83 27.1582 110.713 27.041 110.713 26.8946V26.25C110.713 26.1035 110.83 25.9864 110.977 25.9864H111.299V25.6641C111.299 25.5176 111.416 25.4004 111.562 25.4004H112.178C112.324 25.4004 112.441 25.5176 112.441 25.6641ZM112.148 26.7481H112.529C112.588 26.7481 112.617 26.7188 112.617 26.6602V26.4551C112.617 26.3965 112.588 26.3672 112.529 26.3672H112.148C112.09 26.3672 112.061 26.3379 112.061 26.2793V25.8692C112.061 25.8106 112.031 25.7813 111.973 25.7813H111.738C111.68 25.7813 111.65 25.8106 111.65 25.8692V26.2793C111.65 26.3379 111.621 26.3672 111.562 26.3672H111.152C111.094 26.3672 111.064 26.3965 111.064 26.4551V26.6602C111.064 26.7188 111.094 26.7481 111.152 26.7481H111.562C111.621 26.7481 111.65 26.7774 111.65 26.836V27.2168C111.65 27.2754 111.68 27.3047 111.738 27.3047H111.973C112.031 27.3047 112.061 27.2754 112.061 27.2168V26.836C112.061 26.7774 112.119 26.7481 112.148 26.7481Z" fill="#CCCCCC"/>
<path d="M49.1602 6.94336H93.2812L104.912 18.5742V78.5156H49.1602V6.94336Z" fill="#D0B7F9"/>
<path d="M93.2825 6.93774V18.5686H104.913L93.2825 6.93774Z" fill="#7D41DF"/>
<path d="M96.6504 33.8965H67.9395C67.0605 33.8965 66.3574 33.6621 66.3574 33.3691C66.3574 33.0762 67.0605 32.8418 67.9395 32.8418H96.6504C97.5293 32.8418 98.2324 33.0762 98.2324 33.3691C98.2617 33.6621 97.5293 33.8965 96.6504 33.8965Z" fill="white"/>
<path d="M96.6504 41.3379H67.9395C67.0605 41.3379 66.3574 41.1035 66.3574 40.8105C66.3574 40.5176 67.0605 40.2832 67.9395 40.2832H96.6504C97.5293 40.2832 98.2324 40.5176 98.2324 40.8105C98.2324 41.1035 97.5293 41.3379 96.6504 41.3379Z" fill="white"/>
<path d="M96.6504 48.7793H67.9395C67.0605 48.7793 66.3574 48.5449 66.3574 48.252C66.3574 47.959 67.0605 47.7246 67.9395 47.7246H96.6504C97.5293 47.7246 98.2324 47.959 98.2324 48.252C98.2617 48.5156 97.5293 48.7793 96.6504 48.7793Z" fill="white"/>
<path d="M57.2461 35.4786C57.1289 35.4786 57.041 35.4493 56.9238 35.3614L54.5508 33.545C54.3164 33.3692 54.2871 33.0469 54.4336 32.8126C54.6094 32.5782 54.9316 32.5196 55.166 32.6954L57.1289 34.2188L60.3516 30.3516C60.5273 30.1172 60.8496 30.1172 61.084 30.293C61.2891 30.4981 61.3184 30.8204 61.1426 31.0547L57.5977 35.3028C57.5391 35.42 57.3926 35.4786 57.2461 35.4786Z" fill="white"/>
<path d="M57.2461 42.92C57.1289 42.92 57.041 42.8907 56.9238 42.8028L54.5508 40.9864C54.3164 40.8106 54.2871 40.4883 54.4336 40.254C54.6094 40.0196 54.9316 39.961 55.166 40.1368L57.1289 41.6602L60.3516 37.793C60.5273 37.5586 60.8496 37.5586 61.084 37.7344C61.2891 37.9395 61.3184 38.2618 61.1426 38.4961L57.5977 42.7442C57.5391 42.8614 57.3926 42.92 57.2461 42.92Z" fill="white"/>
<path d="M57.2461 50.8887C57.1289 50.8887 57.041 50.8594 56.9238 50.7715L54.5508 48.9551C54.3164 48.7794 54.2871 48.4571 54.4336 48.2227C54.6094 47.9883 54.9316 47.9297 55.166 48.1055L57.1289 49.629L60.3516 45.7618C60.5273 45.5274 60.8496 45.5274 61.084 45.7032C61.2891 45.9083 61.3184 46.2305 61.1426 46.4649L57.5977 50.7129C57.5391 50.8301 57.3926 50.8887 57.2461 50.8887Z" fill="white"/>
<path d="M114.932 29.6191C115.66 29.6191 116.25 29.0289 116.25 28.3008C116.25 27.5727 115.66 26.9824 114.932 26.9824C114.204 26.9824 113.613 27.5727 113.613 28.3008C113.613 29.0289 114.204 29.6191 114.932 29.6191Z" fill="#63AEFF"/>
<path d="M115.676 79.4609H34.4648C33.6445 79.4609 33 78.8164 33 77.9961V63.4648C33 62.6445 33.6445 62 34.4648 62H115.676C116.496 62 117.141 62.6445 117.141 63.4648V77.9961C117.141 78.7871 116.496 79.4609 115.676 79.4609Z" fill="#077EFF"/>
<path d="M48.1562 69.625C48.1562 69.9922 48.026 70.2956 47.7656 70.5352C47.5052 70.7747 47.1523 70.9271 46.707 70.9922V71.0156C47.2305 71.0677 47.6315 71.2122 47.9102 71.4492C48.1914 71.6862 48.332 71.9948 48.332 72.375C48.332 72.901 48.1185 73.3164 47.6914 73.6211C47.2669 73.9258 46.6784 74.0781 45.9258 74.0781C45.0872 74.0781 44.4141 73.9753 43.9062 73.7695V72.7539C44.151 72.8711 44.4375 72.9635 44.7656 73.0312C45.0964 73.0964 45.4049 73.1289 45.6914 73.1289C46.6523 73.1289 47.1328 72.849 47.1328 72.2891C47.1328 72.0365 46.9779 71.8424 46.668 71.707C46.3607 71.5716 45.9049 71.5039 45.3008 71.5039H44.7656V70.5586H45.2461C45.8503 70.5586 46.2904 70.5013 46.5664 70.3867C46.8424 70.2721 46.9805 70.082 46.9805 69.8164C46.9805 69.6211 46.8932 69.4661 46.7188 69.3516C46.5469 69.2344 46.2878 69.1758 45.9414 69.1758C45.4049 69.1758 44.8867 69.3307 44.3867 69.6406L43.8594 68.832C44.1849 68.6159 44.5299 68.4583 44.8945 68.3594C45.2591 68.2578 45.6641 68.207 46.1094 68.207C46.7318 68.207 47.2279 68.3372 47.5977 68.5977C47.9701 68.8581 48.1562 69.2005 48.1562 69.625ZM52.8945 74L52.4805 72.6406H50.3984L49.9844 74H48.6797L50.6953 68.2656H52.1758L54.1992 74H52.8945ZM52.1914 71.625C51.8086 70.3932 51.5924 69.6966 51.543 69.5352C51.4961 69.3737 51.4622 69.2461 51.4414 69.1523C51.3555 69.4857 51.1094 70.3099 50.7031 71.625H52.1914ZM56.1328 70.4805H56.6094C57.3542 70.4805 57.9297 70.6315 58.3359 70.9336C58.7422 71.2357 58.9453 71.6628 58.9453 72.2148C58.9453 73.4049 58.1589 74 56.5859 74H54.9219V68.2891H58.5312V69.2891H56.1328V70.4805ZM56.1328 73.0078H56.5391C56.9479 73.0078 57.2474 72.9427 57.4375 72.8125C57.6276 72.6797 57.7227 72.4805 57.7227 72.2148C57.7227 71.9518 57.6263 71.763 57.4336 71.6484C57.2409 71.5312 56.9102 71.4727 56.4414 71.4727H56.1328V73.0078ZM61.2422 70.9766H61.6406C62.013 70.9766 62.2917 70.9036 62.4766 70.7578C62.6615 70.6094 62.7539 70.3945 62.7539 70.1133C62.7539 69.8294 62.6758 69.6198 62.5195 69.4844C62.3659 69.349 62.1237 69.2812 61.793 69.2812H61.2422V70.9766ZM63.9766 70.0703C63.9766 70.6849 63.7839 71.1549 63.3984 71.4805C63.0156 71.806 62.4701 71.9688 61.7617 71.9688H61.2422V74H60.0312V68.2891H61.8555C62.5482 68.2891 63.0742 68.4388 63.4336 68.7383C63.7956 69.0352 63.9766 69.4792 63.9766 70.0703ZM70.2383 71.1367C70.2383 72.082 70.0039 72.8086 69.5352 73.3164C69.0664 73.8242 68.3945 74.0781 67.5195 74.0781C66.6445 74.0781 65.9727 73.8242 65.5039 73.3164C65.0352 72.8086 64.8008 72.0794 64.8008 71.1289C64.8008 70.1784 65.0352 69.4531 65.5039 68.9531C65.9753 68.4505 66.6497 68.1992 67.5273 68.1992C68.4049 68.1992 69.0755 68.4518 69.5391 68.957C70.0052 69.4622 70.2383 70.1888 70.2383 71.1367ZM66.0703 71.1367C66.0703 71.7747 66.1914 72.2552 66.4336 72.5781C66.6758 72.901 67.0378 73.0625 67.5195 73.0625C68.4857 73.0625 68.9688 72.4206 68.9688 71.1367C68.9688 69.8503 68.4883 69.207 67.5273 69.207C67.0456 69.207 66.6823 69.3698 66.4375 69.6953C66.1927 70.0182 66.0703 70.4987 66.0703 71.1367ZM76.1016 74H74.8945V71.5352H72.6328V74H71.4219V68.2891H72.6328V70.5273H74.8945V68.2891H76.1016V74ZM84.9258 71.1367C84.9258 72.0742 84.7057 72.7995 84.2656 73.3125C83.8281 73.8229 83.1992 74.0781 82.3789 74.0781C81.6263 74.0781 81.0339 73.862 80.6016 73.4297C80.1693 72.9948 79.9193 72.3633 79.8516 71.5352H78.7578V74H77.5469V68.2891H78.7578V70.5273H79.875C79.9635 69.7747 80.2214 69.1992 80.6484 68.8008C81.0781 68.3997 81.6576 68.1992 82.3867 68.1992C83.2096 68.1992 83.8385 68.4544 84.2734 68.9648C84.7083 69.4753 84.9258 70.1992 84.9258 71.1367ZM81.0938 71.1367C81.0938 71.7721 81.2031 72.2526 81.4219 72.5781C81.6406 72.901 81.9596 73.0625 82.3789 73.0625C83.2435 73.0625 83.6758 72.4206 83.6758 71.1367C83.6758 70.5013 83.5677 70.0208 83.3516 69.6953C83.138 69.3698 82.819 69.207 82.3945 69.207C81.9674 69.207 81.6432 69.3698 81.4219 69.6953C81.2031 70.0208 81.0938 70.5013 81.0938 71.1367ZM86.1094 68.2891H87.8867C88.6966 68.2891 89.2839 68.4049 89.6484 68.6367C90.0156 68.8659 90.1992 69.2318 90.1992 69.7344C90.1992 70.0755 90.1185 70.3555 89.957 70.5742C89.7982 70.793 89.5859 70.9245 89.3203 70.9688V71.0078C89.6823 71.0885 89.9427 71.2396 90.1016 71.4609C90.263 71.6823 90.3438 71.9766 90.3438 72.3438C90.3438 72.8646 90.1549 73.2708 89.7773 73.5625C89.4023 73.8542 88.8919 74 88.2461 74H86.1094V68.2891ZM87.3203 70.5508H88.0234C88.3516 70.5508 88.5885 70.5 88.7344 70.3984C88.8828 70.2969 88.957 70.1289 88.957 69.8945C88.957 69.6758 88.8763 69.5195 88.7148 69.4258C88.556 69.3294 88.3034 69.2812 87.957 69.2812H87.3203V70.5508ZM87.3203 71.5117V73H88.1094C88.4427 73 88.6888 72.9362 88.8477 72.8086C89.0065 72.681 89.0859 72.4857 89.0859 72.2227C89.0859 71.7487 88.7474 71.5117 88.0703 71.5117H87.3203ZM94.9805 74L94.5664 72.6406H92.4844L92.0703 74H90.7656L92.7812 68.2656H94.2617L96.2852 74H94.9805ZM94.2773 71.625C93.8945 70.3932 93.6784 69.6966 93.6289 69.5352C93.582 69.3737 93.5482 69.2461 93.5273 69.1523C93.4414 69.4857 93.1953 70.3099 92.7891 71.625H94.2773ZM99.2109 74H98V69.2969H96.4492V68.2891H100.762V69.2969H99.2109V74ZM101.641 68.2891H102.73V71.0469L102.715 71.7852L102.676 72.625H102.699L105.336 68.2891H106.785V74H105.707V71.2578C105.707 70.8906 105.73 70.3464 105.777 69.625H105.746L103.098 74H101.641V68.2891Z" fill="white"/>
<path d="M28.916 60.6152C28.916 60.6152 29.6191 55.8984 35.8008 56.9531C35.8301 56.9824 31.084 56.4257 28.916 60.6152Z" fill="#63AEFF" stroke="#077EFF" stroke-miterlimit="10"/>
<path d="M31.1426 61.4648C31.1426 61.4648 31.582 58.623 35.3027 59.2675C35.3027 59.2675 32.4316 58.9452 31.1426 61.4648Z" fill="#63AEFF" stroke="#077EFF" stroke-miterlimit="10"/>
<path d="M120.557 61.582C120.557 61.582 120.732 56.8066 114.434 56.7188C114.434 56.7188 119.18 57.0703 120.557 61.582Z" fill="#63AEFF" stroke="#077EFF" stroke-miterlimit="10"/>
<path d="M118.213 62.0215C118.213 62.0215 118.301 59.1504 114.521 59.0918C114.551 59.0918 117.393 59.2969 118.213 62.0215Z" fill="#63AEFF" stroke="#077EFF" stroke-miterlimit="10"/>
<path d="M121.318 78.9258C121.318 78.9258 121.494 83.7012 115.195 83.7891C115.225 83.7891 119.971 83.4375 121.318 78.9258Z" fill="#63AEFF" stroke="#077EFF" stroke-miterlimit="10"/>
<path d="M119.004 78.4863C119.004 78.4863 119.092 81.3574 115.312 81.416C115.313 81.416 118.184 81.2109 119.004 78.4863Z" fill="#63AEFF" stroke="#077EFF" stroke-miterlimit="10"/>
<path d="M28.8574 79.541C28.8574 79.541 28.623 84.3164 34.9219 84.4629C34.9219 84.4629 30.1758 84.082 28.8574 79.541Z" fill="#63AEFF" stroke="#077EFF" stroke-miterlimit="10"/>
<path d="M31.2012 79.1602C31.2012 79.1602 31.0547 82.0312 34.834 82.1191C34.834 82.1191 31.9922 81.8848 31.2012 79.1602Z" fill="#63AEFF" stroke="#077EFF" stroke-miterlimit="10"/>
<path d="M110.889 82.2656L108.398 78.3984L111.768 77.5488L104.209 72.7148L105.439 81.6211L107.607 78.9258L110.098 82.793C110.156 82.9101 110.273 82.9687 110.391 82.998C110.508 83.0273 110.625 82.998 110.742 82.9394C110.977 82.7637 111.035 82.4707 110.889 82.2656Z" fill="#3D324C"/>
</g>
<defs>
<clipPath id="clip0">
<rect width="150" height="150" fill="white"/>
</clipPath>
</defs>
</svg>
