<?xml version="1.0" encoding="iso-8859-1"?>
<!-- Generator: Adobe Illustrator 19.0.0, SVG Export Plug-In . SVG Version: 6.00 Build 0)  -->
<svg version="1.1" id="Layer_1" xmlns="http://www.w3.org/2000/svg" xmlns:xlink="http://www.w3.org/1999/xlink" x="0px" y="0px"
	 viewBox="0 0 511.997 511.997" style="enable-background:new 0 0 511.997 511.997;" xml:space="preserve">
<path style="fill:#55C6A1;" d="M503.512,255.999c0,138.184-112.021,250.194-250.205,250.194
	c-138.173,0-250.194-112.01-250.194-250.194c0-3.711,0.076-7.412,0.25-11.09c2.029-46.629,16.82-89.949,40.976-126.54
	C89.089,50.545,165.973,5.804,253.307,5.804C391.491,5.804,503.512,117.814,503.512,255.999z"/>
<path style="fill:#F9D387;" d="M357.346,109.731l-143.764-0.137c-12.76-0.012-23.108,10.325-23.12,23.075v0.629
	c-0.023,12.76,10.313,23.108,23.075,23.12l60.373,0.046L139.727,290.646c-8.473,8.461-8.473,22.194,0,30.667
	c8.461,8.462,22.194,8.462,30.667,0l-19.313,19.302c-8.473,8.473-8.473,22.206,0,30.667c4.242,4.231,9.788,6.357,15.333,6.357
	s11.091-2.127,15.333-6.357l23.909-23.909c-8.473,8.473-8.473,22.195,0,30.667c4.231,4.242,9.776,6.357,15.333,6.357
	c2.79,0,5.568-0.537,8.198-1.601c2.596-1.052,5.031-2.652,7.135-4.756l31.044-31.044c-4.242,4.231-6.358,9.776-6.358,15.322
	c0,0.983,0.068,1.978,0.194,2.961c0.629,4.528,2.676,8.896,6.163,12.372c4.242,4.242,9.788,6.358,15.333,6.358
	s11.091-2.115,15.333-6.358l83.505-83.505l20.948-20.936c21.977-21.977,35.732-50.838,38.957-81.756L357.346,109.731z"/>
<g>
	<path style="fill:#DDB876;" d="M261.011,362.316c0,4.105,1.167,8.21,3.488,11.789l62.247-62.247c3.35-3.35,3.35-8.781,0-12.131l0,0
		c-3.35-3.35-8.782-3.35-12.132,0.001l-47.245,47.255C263.138,351.213,261.011,356.759,261.011,362.316z"/>
	<path style="fill:#DDB876;" d="M148.211,367.724l119.493-119.493c3.35-3.35,3.349-8.781-0.003-12.129l0,0
		c-3.349-3.346-8.776-3.344-12.123,0.003l-85.196,85.196l-19.302,19.313C143.707,347.977,142.757,359.32,148.211,367.724z"/>
	<path style="fill:#DDB876;" d="M199.3,362.705c0,4.105,1.155,8.209,3.488,11.788l87.58-87.58c3.35-3.35,3.35-8.782,0-12.132l0,0
		c-3.35-3.35-8.781-3.35-12.132,0l-72.59,72.59C201.415,351.602,199.3,357.147,199.3,362.705z"/>
	<path style="fill:#DDB876;" d="M369.734,201.486c1.981,4.677-0.506,10.076-5.368,11.545c-8.346,2.522-16.837,3.737-25.223,3.737
		c-32.085,0-62.729-17.677-78.12-47.418l12.886-12.886c14.201,33.553,51.43,50.459,85.546,40.137
		C363.612,195.343,368.041,197.488,369.734,201.486L369.734,201.486z"/>
</g>
<path style="fill:#F9D387;" d="M301.73,347.377L189.584,235.219l-5.566-5.555c-6.087-6.087-1.776-16.484,6.821-16.484l12.648-0.011
	h13.711l10.374-0.011c12.92-0.011,23.395-10.499,23.395-23.418c0-3.066-0.588-5.985-1.674-8.666
	c-3.439-8.631-11.878-14.741-21.743-14.741c-0.011,0-0.011,0-0.023,0L84.1,166.47L0,248.172
	c3.236,30.918,16.993,59.789,38.974,81.759l20.929,20.94l83.524,83.513c8.462,8.462,22.196,8.462,30.658,0
	c1.097-1.097,2.059-2.285,2.863-3.541c2.319-3.575,3.495-7.682,3.495-11.788c0-5.555-2.127-11.11-6.358-15.341l31.054,31.054
	c8.462,8.462,22.196,8.462,30.658,0c1.109-1.097,2.059-2.296,2.863-3.541c2.331-3.575,3.484-7.682,3.484-11.788
	c0-5.555-2.116-11.098-6.347-15.329l23.916,23.904c8.462,8.462,22.196,8.462,30.658,0v-0.011c1.097-1.097,2.059-2.285,2.863-3.541
	c5.453-8.406,4.514-19.752-2.863-27.117l-19.3-19.311c8.462,8.473,22.185,8.473,30.658,0c1.097-1.097,2.059-2.285,2.874-3.541
	c2.319-3.575,3.474-7.682,3.474-11.788C308.076,357.163,305.961,351.619,301.73,347.377z"/>
<g>
	<path style="fill:#DDB876;" d="M180.437,419.054c0,4.105-1.167,8.21-3.488,11.789l-62.247-62.247c-3.35-3.35-3.35-8.781,0-12.131
		l0,0c3.35-3.35,8.782-3.35,12.132,0.001l47.245,47.255C178.31,407.95,180.437,413.497,180.437,419.054z"/>
	<path style="fill:#DDB876;" d="M293.237,424.462L173.745,304.969c-3.35-3.35-3.349-8.781,0.003-12.129l0,0
		c3.349-3.346,8.776-3.344,12.123,0.003l85.196,85.196l19.302,19.313C297.743,404.714,298.691,416.057,293.237,424.462z"/>
	<path style="fill:#DDB876;" d="M308.079,362.705c0,4.105-1.155,8.209-3.476,11.788L190.792,260.681
		c-8.128-8.128-10.772-20.247-6.77-31.021l0,0l117.711,117.71C305.964,351.613,308.079,357.159,308.079,362.705z"/>
	<path style="fill:#DDB876;" d="M242.149,419.442c0,4.105-1.155,8.209-3.488,11.788l-87.58-87.58c-3.35-3.35-3.35-8.782,0-12.132
		l0,0c3.35-3.35,8.782-3.35,12.132,0l72.59,72.59C240.033,408.34,242.149,413.885,242.149,419.442z"/>
	<path style="fill:#DDB876;" d="M249.294,181.075l-32.095,32.095h-13.711c7.863-8.587,24.062-28.487,24.062-46.835
		C237.414,166.334,245.855,172.444,249.294,181.075z"/>
</g>
<rect x="336.992" y="83.496" transform="matrix(-0.7071 -0.7071 0.7071 -0.7071 624.5505 520.0109)" style="fill:#32AACE;" width="165.963" height="94.321"/>
<g>
	
		<rect x="355.187" y="39.561" transform="matrix(-0.7071 -0.7071 0.7071 -0.7071 580.6139 413.9403)" style="fill:#2AA1BC;" width="41.699" height="94.321"/>
	<path style="fill:#2AA1BC;" d="M84.098,166.473L3.362,244.908c2.029-46.629,16.82-89.949,40.976-126.54L84.098,166.473z"/>
</g>
<circle style="fill:#FFFFFF;" cx="454.074" cy="170.564" r="11.394"/>
<g>
</g>
<g>
</g>
<g>
</g>
<g>
</g>
<g>
</g>
<g>
</g>
<g>
</g>
<g>
</g>
<g>
</g>
<g>
</g>
<g>
</g>
<g>
</g>
<g>
</g>
<g>
</g>
<g>
</g>
</svg>
