<svg width="150" height="150" viewBox="0 0 150 150" fill="none" xmlns="http://www.w3.org/2000/svg">
<path d="M75 150C116.309 150 150 116.309 150 75C150 33.6914 116.309 0 75 0C33.6914 0 0 33.6914 0 75C0 116.309 33.6914 150 75 150Z" fill="#BAA5DD"/>
<path d="M150 75C150 116.309 116.309 150 75 150C46.318 150 21.3082 133.757 8.69879 110L125 19.1768C140.33 32.9255 150 52.8697 150 75Z" fill="#B397E1"/>
<path d="M108.924 54.3164C101.482 56.1035 95.6523 62.2266 95.6523 70.1367V80.1562C95.7402 80.1562 95.7988 80.1562 95.8867 80.1562C107.371 80.1562 116.687 89.4727 116.687 100.957C116.687 106.641 114.432 111.768 110.74 115.518C111.063 115.547 111.385 115.547 111.736 115.547C120.613 115.547 127.82 108.34 127.82 99.4629V70.166C127.82 62.2559 122.107 55.6641 114.549 54.3457C114.549 54.3164 110.857 53.8476 108.924 54.3164Z" fill="white"/>
<path d="M75.7598 121.787C78.8945 121.787 81.5313 119.619 82.2637 116.719C77.8691 112.91 75.0859 107.256 75.0859 100.986C75.0859 94.5996 77.957 88.8867 82.4688 85.0781V58.623C82.4688 54.9023 79.4512 51.9141 75.7598 51.9141H31.2285C27.5078 51.9141 24.5195 54.9316 24.5195 58.623V115.078C24.5195 118.799 27.5371 121.787 31.2285 121.787" fill="white"/>
<path d="M75.7598 51.9141H70.7793C74.5 51.9141 77.4883 54.9316 77.4883 58.623V81.6797C77.4883 82.7344 77.1074 83.7305 76.4336 84.5508C74.3828 86.9824 72.7715 89.7656 71.7461 92.8418C70.6914 95.332 70.1055 98.0859 70.1055 100.986C70.1055 103.887 70.6914 106.641 71.7754 109.16C71.7754 109.189 71.7754 109.189 71.8047 109.219C72.8008 112.09 70.6914 115.107 67.6445 115.107H31.2285C27.5078 115.107 24.5195 112.09 24.5195 108.398V115.078C24.5195 118.799 27.5371 121.787 31.2285 121.787H75.7598C77.9277 121.787 79.8906 120.732 81.0918 119.121C81.0918 119.121 81.0918 119.092 81.1211 119.092C81.1797 119.033 81.209 118.945 81.2676 118.887C81.2676 118.857 81.2969 118.857 81.2969 118.828C81.3262 118.77 81.3848 118.711 81.4141 118.652C81.4141 118.623 81.4433 118.594 81.4433 118.594C81.4726 118.535 81.5019 118.477 81.5605 118.418C81.5898 118.389 81.5898 118.359 81.6191 118.33C81.6484 118.271 81.6777 118.213 81.707 118.154C81.7363 118.125 81.7363 118.096 81.7656 118.066C81.7949 118.008 81.8242 117.949 81.8535 117.891C81.8828 117.861 81.8828 117.832 81.9121 117.803C81.9414 117.744 81.9707 117.686 81.9707 117.627C81.9707 117.598 82 117.568 82 117.539C82.0293 117.48 82.0586 117.422 82.0586 117.363C82.0586 117.334 82.0879 117.305 82.0879 117.275C82.1172 117.217 82.1172 117.158 82.1465 117.1C82.1465 117.07 82.1758 117.041 82.1758 117.012C82.2051 116.924 82.2344 116.836 82.2637 116.719C82.0293 116.514 81.8242 116.309 81.5898 116.103C81.5605 116.074 81.5312 116.045 81.5019 116.016C81.2969 115.811 81.0918 115.605 80.8867 115.4C80.8574 115.371 80.8281 115.342 80.7988 115.312C80.5937 115.107 80.3887 114.873 80.2129 114.668C80.1836 114.639 80.1836 114.609 80.1543 114.609C79.9492 114.375 79.7441 114.141 79.5684 113.906C76.7559 110.361 75.0566 105.85 75.0566 100.986C75.0566 94.5996 77.9277 88.8867 82.4394 85.0781V58.623C82.4687 54.9316 79.4805 51.9141 75.7598 51.9141Z" fill="#D3D3D3"/>
<path d="M37.6152 45.6738H69.373V51.9141H37.6152V45.6738Z" fill="#DDDDDD"/>
<path d="M61.1992 45.6738H69.373V51.9141H61.1992V45.6738Z" fill="#9B9B9B"/>
<path d="M31.0234 36.6797V43.1543C31.0234 44.5605 32.166 45.6738 33.543 45.6738H73.4453C74.8516 45.6738 75.9648 44.5313 75.9648 43.1543V30.2051C75.9648 28.7988 74.8223 27.6855 73.4453 27.6855H33.543C32.1367 27.6855 31.0234 28.8281 31.0234 30.2051V36.6797Z" fill="white"/>
<path d="M64.6562 27.6855V45.6738H73.4453C74.8516 45.6738 75.9649 44.5313 75.9649 43.1543V30.2051C75.9649 28.7988 74.8223 27.6855 73.4453 27.6855H64.6562Z" fill="#D3D3D3"/>
<path d="M70.9258 86.8652C70.9258 96.4746 63.1328 104.297 53.4941 104.297C43.8848 104.297 36.0625 96.5039 36.0625 86.8652C36.0625 77.2266 43.8555 69.4336 53.4941 69.4336C63.1328 69.4336 70.9258 77.2266 70.9258 86.8652Z" fill="#86BD4A"/>
<path d="M63.3672 72.5098C65.3008 75.3223 66.4434 78.7207 66.4434 82.3828C66.4434 92.0215 58.6504 99.8145 49.0117 99.8145C45.3496 99.8145 41.9512 98.6719 39.1387 96.7383C42.2734 101.309 47.5469 104.297 53.4941 104.297C63.1328 104.297 70.9258 96.5039 70.9258 86.8652C70.9258 80.8887 67.9375 75.6445 63.3672 72.5098Z" fill="#4A8D00"/>
<path d="M116.688 100.986C116.688 112.471 107.371 121.787 95.8867 121.787C84.4023 121.787 75.0859 112.471 75.0859 100.986C75.0859 89.502 84.4023 80.1855 95.8867 80.1855C107.371 80.1855 116.688 89.502 116.688 100.986Z" fill="#C0EDF2"/>
<path d="M108.484 84.4043C111.15 87.8906 112.703 92.2559 112.703 96.9727C112.703 108.457 103.387 117.773 91.9024 117.773C87.1856 117.773 82.8203 116.191 79.334 113.555C83.1426 118.564 89.1484 121.787 95.916 121.787C107.4 121.787 116.717 112.471 116.717 100.986C116.688 94.2188 113.465 88.2129 108.484 84.4043Z" fill="#92CFD6"/>
<path d="M81.6191 115.898C82.4102 116.602 83.2598 117.217 84.168 117.803L112.879 89.0918C112.322 88.1836 111.678 87.334 110.975 86.543C110.857 86.6016 110.711 86.6895 110.623 86.8066L81.8828 115.547C81.7656 115.664 81.6777 115.781 81.6191 115.898Z" fill="#92CFD6"/>
<path d="M114.549 54.3164C112.527 54.0527 110.652 54.0527 108.924 54.3164C108.865 54.3164 108.807 54.3457 108.748 54.3457C116.189 55.752 121.844 62.2852 121.844 70.1367V99.4922C121.844 106.23 117.684 112.031 111.795 114.404C111.473 114.785 111.121 115.166 110.77 115.547C111.092 115.576 111.414 115.576 111.766 115.576C120.643 115.576 127.85 108.369 127.85 99.4922V70.166C127.82 62.2266 122.078 55.6641 114.549 54.3164Z" fill="#D3D3D3"/>
<path d="M109.012 84.8145C113.699 88.623 116.717 94.4531 116.717 100.957C116.717 106.641 114.461 111.768 110.77 115.518C111.092 115.547 111.414 115.547 111.766 115.547C120.643 115.547 127.85 108.34 127.85 99.4629V84.7852H109.012V84.8145Z" fill="#C32655"/>
<path d="M121.844 99.4922C121.844 106.23 117.684 112.031 111.795 114.404C111.648 114.58 111.473 114.756 111.326 114.932C111.297 114.961 111.268 114.99 111.238 115.02C111.092 115.195 110.916 115.371 110.77 115.518C111.092 115.547 111.414 115.547 111.766 115.547C120.643 115.547 127.85 108.34 127.85 99.4629V84.7852H121.873V99.4922H121.844Z" fill="#A92955"/>
<path d="M61.4922 85.2539H55.0762V78.8379C55.0762 77.959 54.373 77.2266 53.4648 77.2266C52.5566 77.2266 51.8535 77.9297 51.8535 78.8379V85.2539H45.4375C44.5586 85.2539 43.8262 85.957 43.8262 86.8652C43.8262 87.7441 44.5293 88.4766 45.4375 88.4766H51.8535V94.8926C51.8535 95.7715 52.5566 96.5039 53.4648 96.5039C54.373 96.5039 55.0762 95.8008 55.0762 94.8926V88.4766H61.4922C62.3711 88.4766 63.1035 87.7734 63.1035 86.8652C63.1035 85.957 62.4004 85.2539 61.4922 85.2539Z" fill="white"/>
<path d="M42.0391 47.2266C41.1602 47.2266 40.4277 46.5234 40.4277 45.6152V27.627C40.4277 26.748 41.1309 26.0156 42.0391 26.0156C42.9473 26.0156 43.6504 26.7188 43.6504 27.627V45.6152C43.6504 46.4941 42.918 47.2266 42.0391 47.2266Z" fill="#AA9FBC"/>
<path d="M53.5234 47.2266C52.6445 47.2266 51.9121 46.5234 51.9121 45.6152V27.627C51.9121 26.748 52.6152 26.0156 53.5234 26.0156C54.4316 26.0156 55.1348 26.7188 55.1348 27.627V45.6152C55.1348 46.4941 54.4023 47.2266 53.5234 47.2266Z" fill="#AA9FBC"/>
<path d="M65.0078 47.2266C64.1289 47.2266 63.3965 46.5234 63.3965 45.6152V27.627C63.3965 26.748 64.0996 26.0156 65.0078 26.0156C65.916 26.0156 66.6191 26.7188 66.6191 27.627V45.6152C66.6191 46.4941 65.8867 47.2266 65.0078 47.2266Z" fill="#AA9FBC"/>
<path d="M81.3262 117.129C80.916 117.129 80.5059 116.982 80.1836 116.66C79.5684 116.045 79.5684 115.02 80.1836 114.404L108.924 85.6641C109.539 85.0488 110.564 85.0488 111.18 85.6641C111.795 86.2793 111.795 87.3047 111.18 87.9199L82.4394 116.66C82.1465 116.982 81.7363 117.129 81.3262 117.129Z" fill="#43BEB3"/>
<path d="M72.5078 124.893C83.478 124.893 92.3711 115.999 92.3711 105.029C92.3711 94.0591 83.478 85.166 72.5078 85.166C61.5376 85.166 52.6445 94.0591 52.6445 105.029C52.6445 115.999 61.5376 124.893 72.5078 124.893Z" fill="#D0E8F9"/>
<path d="M79.7148 86.543L54.0215 112.207C55.457 115.869 57.918 119.004 61.1113 121.23L88.7383 93.6035C86.5117 90.4395 83.377 87.9785 79.7148 86.543Z" fill="#EAF6FD"/>
<path d="M100.75 132.363L88.6504 119.707C92.1953 115.811 94.3633 110.684 94.3633 105.029C94.3633 92.959 84.5488 83.1445 72.4785 83.1445C60.4082 83.1445 50.5938 92.959 50.5938 105.029C50.5938 117.1 60.4082 126.914 72.4785 126.914C77.4297 126.914 81.9707 125.244 85.6328 122.461L97.791 135.176C98.2012 135.586 98.7285 135.791 99.2559 135.791C99.7539 135.791 100.252 135.615 100.662 135.234C101.512 134.443 101.541 133.184 100.75 132.363ZM54.666 105.029C54.666 95.2148 62.6641 87.2168 72.4785 87.2168C82.293 87.2168 90.291 95.2148 90.291 105.029C90.291 114.844 82.293 122.842 72.4785 122.842C62.6641 122.842 54.666 114.844 54.666 105.029Z" fill="#274684"/>
</svg>
