<svg width="150" height="150" viewBox="0 0 150 150" fill="none" xmlns="http://www.w3.org/2000/svg">
<path d="M75.5574 150C116.866 150 150.557 116.309 150.557 75C150.557 33.6914 116.866 0 75.5574 0C34.2488 0 0.557434 33.6914 0.557434 75C0.557434 116.309 34.2488 150 75.5574 150Z" fill="#9CC4FE"/>
<path d="M150.301 74.8232C150.301 116.132 116.61 149.823 75.3012 149.823C46.6192 149.823 21.6094 133.581 9 109.823L125.301 19C140.632 32.7488 150.301 52.6929 150.301 74.8232Z" fill="#7AB0FF"/>
<path d="M46.8758 145.518C53.9363 145.547 114.141 17.1387 114.141 17.1387C114.141 17.1387 114.2 4.51171 104.093 4.48241C96.241 4.45311 48.3113 4.24804 48.3113 4.24804C39.1414 4.21874 35.6258 9.99022 35.5965 14.7949C35.5672 19.5996 35.1277 131.865 35.0984 137.871C35.0984 143.906 39.8445 145.488 46.8758 145.518Z" fill="#B9D5FD"/>
<path d="M113.702 136.436C113.673 141.592 109.483 145.752 104.327 145.752L46.4656 145.518C41.3094 145.488 37.1199 141.299 37.1492 136.143L37.618 16.8457C37.6472 11.6895 41.8367 7.50003 46.993 7.52933L104.854 7.73441C110.011 7.7637 114.2 11.9532 114.171 17.1094L113.702 136.436Z" fill="#274684"/>
<path d="M42.4855 18.884L42.0679 125.73L108.836 125.991L109.253 19.145L42.4855 18.884Z" fill="white"/>
<path d="M86.7489 13.8867C86.7489 14.6191 86.1043 15.2344 85.284 15.2051L66.4754 15.1465C65.6844 15.1465 65.0399 14.5313 65.0399 13.7988C65.0399 13.0664 65.6844 12.4805 66.5047 12.4805L85.3133 12.5684C86.1043 12.5684 86.7489 13.1543 86.7489 13.8867Z" fill="#274684"/>
<path d="M86.1922 14.9414C85.9578 15.1172 85.6356 15.2051 85.3133 15.2051L66.4754 15.1465C65.6844 15.1465 65.0399 14.5312 65.0399 13.7988C65.0399 13.0664 65.6844 12.4805 66.5047 12.4805C66.5047 12.4805 65.9481 13.0957 66.1824 13.8281C66.4168 14.5605 68.6141 14.6191 69.6395 14.6191C70.6063 14.6191 86.1922 14.9414 86.1922 14.9414Z" fill="#DBDCDE"/>
<path d="M77.3123 140.922C80.2294 139.854 81.7283 136.623 80.6603 133.706C79.5922 130.789 76.3616 129.29 73.4445 130.358C70.5274 131.426 69.0285 134.657 70.0965 137.574C71.1646 140.491 74.3952 141.99 77.3123 140.922Z" fill="#274684"/>
<path d="M77.0303 140.151C79.5219 139.239 80.8023 136.48 79.89 133.988C78.9777 131.496 76.2182 130.216 73.7266 131.128C71.2349 132.04 69.9545 134.8 70.8668 137.292C71.7791 139.783 74.5386 141.064 77.0303 140.151Z" fill="#637AA8"/>
<path d="M79.0731 135.644C79.0731 133.594 77.4325 131.924 75.3817 131.924C73.3309 131.924 71.661 133.564 71.661 135.615C71.661 137.666 73.3016 139.336 75.3524 139.336C77.4032 139.365 79.0731 137.695 79.0731 135.644Z" fill="#E2E5E7"/>
<path d="M87.8914 6.73828L99.1707 6.79688C99.1707 6.79688 99.7566 6.15234 99.1707 5.21484L87.8914 5.15625C87.9207 5.15625 87.1883 5.94727 87.8914 6.73828Z" fill="#D1D5D5"/>
<path d="M99.2001 5.18555L87.9208 5.12695C87.9208 5.12695 87.3934 5.71289 87.6864 6.38672L99.3758 6.44531C99.493 6.18164 99.5223 5.74219 99.2001 5.18555Z" fill="#274684"/>
<path d="M56.7768 5.83018C56.7785 5.39331 55.5994 5.03455 54.1431 5.02886C52.6869 5.02316 51.505 5.3727 51.5033 5.80957C51.5016 6.24644 52.6807 6.6052 54.137 6.61089C55.5932 6.61658 56.7751 6.26705 56.7768 5.83018Z" fill="#274684"/>
<path d="M93.7801 42.3047H56.8074V64.8047H93.7801V42.3047Z" fill="#B9D5FD"/>
<path d="M95.9188 64.8047H54.6688V62.6953C54.6688 62.0215 55.1961 61.4941 55.8699 61.4941H94.7176C95.3914 61.4941 95.9188 62.0215 95.9188 62.6953V64.8047Z" fill="#E596B5"/>
<path d="M93.7801 42.3047H56.8074V43.125H93.7801V42.3047Z" fill="#63AEFF"/>
<path d="M95.8895 42.3047H54.6981L56.8074 38.0859H93.7801L95.8895 42.3047Z" fill="#E596B5"/>
<path d="M80.5965 45.6445H70.0203V64.834H80.5965V45.6445Z" fill="#63AEFF"/>
<path d="M80.157 46.582H70.4305L70.0203 45.6445H80.5965L80.157 46.582Z" fill="#488FEB"/>
<path d="M70.4305 63.8672H80.157L80.5965 64.834H70.0203L70.4305 63.8672Z" fill="#B9D5FD"/>
<path d="M80.157 46.582H70.4305V63.8672H80.157V46.582Z" fill="#595959"/>
<path d="M80.046 63.7828V46.7028H70.5245V63.7828H80.046Z" fill="#B9D5FD"/>
<path d="M92.9012 45.9668H81.241V56.0156H92.9012V45.9668Z" fill="#595959"/>
<path d="M92.795 55.9102V46.0664H81.34V55.9102H92.795Z" fill="#DBF1FE"/>
<path d="M84.4637 55.9277L89.6492 46.084H92.784V55.9277H84.4637Z" fill="white"/>
<path d="M79.4832 47.4902H71.1336V56.0742H79.4832V47.4902Z" fill="#595959"/>
<path d="M79.3565 55.9741V47.5952H71.212V55.9741H79.3565Z" fill="#DBF1FE"/>
<path d="M73.9168 55.9863L76.9344 47.6074H79.366V55.9863H73.9168Z" fill="white"/>
<path d="M57.6924 56.0383H69.3525V45.9895H57.6924V56.0383Z" fill="#595959"/>
<path d="M69.2729 55.9362V46.0924H57.8178V55.9362H69.2729Z" fill="#DBF1FE"/>
<path d="M60.9383 55.9277L66.1238 46.084H69.2586V55.9277H60.9383Z" fill="white"/>
<path d="M71.6902 58.5938C72.1109 58.5938 72.452 58.2527 72.452 57.832C72.452 57.4113 72.1109 57.0703 71.6902 57.0703C71.2696 57.0703 70.9285 57.4113 70.9285 57.832C70.9285 58.2527 71.2696 58.5938 71.6902 58.5938Z" fill="#488FEB"/>
<path d="M71.6902 58.3594C72.0624 58.3594 72.3641 58.0577 72.3641 57.6855C72.3641 57.3134 72.0624 57.0117 71.6902 57.0117C71.3181 57.0117 71.0164 57.3134 71.0164 57.6855C71.0164 58.0577 71.3181 58.3594 71.6902 58.3594Z" fill="#63AEFF"/>
<path d="M71.6902 57.3047C71.9539 57.3047 72.1883 57.5098 72.2176 57.7734C72.2176 57.7441 72.2176 57.7148 72.2176 57.7148C72.2176 57.4219 71.9832 57.1875 71.6902 57.1875C71.3973 57.1875 71.1629 57.4219 71.1629 57.7148C71.1629 57.7441 71.1629 57.7734 71.1629 57.7734C71.1922 57.5098 71.3973 57.3047 71.6902 57.3047Z" fill="#EBBB7B"/>
<path d="M89.6492 50.5371H87.8621V48.75H86.368V50.5371H84.5809V52.0313H86.368V53.8184H87.8621V52.0313H89.6492V50.5371Z" fill="#C32655"/>
<path d="M66.0652 50.5371H64.2781V48.75H62.784V50.5371H60.9969V52.0313H62.784V53.8184H64.2781V52.0313H66.0652V50.5371Z" fill="#C32655"/>
<path d="M75.2352 113.848C84.8786 113.848 92.6961 106.03 92.6961 96.3867C92.6961 86.7433 84.8786 78.9258 75.2352 78.9258C65.5918 78.9258 57.7742 86.7433 57.7742 96.3867C57.7742 106.03 65.5918 113.848 75.2352 113.848Z" fill="#86BD4A"/>
<path d="M73.5653 103.447C73.2723 103.447 72.95 103.359 72.7157 103.154L66.1239 98.0566C65.4793 97.5586 65.3621 96.6211 65.8309 95.9765C66.2996 95.332 67.2078 95.1855 67.8524 95.6836L73.3602 99.9316L82.3836 89.1211C82.911 88.5058 83.8192 88.418 84.4051 88.9746C85.0204 89.5019 85.0789 90.4394 84.5516 91.0547L74.6786 102.949C74.3856 103.271 73.9754 103.447 73.5653 103.447Z" fill="white"/>
<path d="M129.932 9.58008H101.895C99.9617 9.58008 98.3797 11.1621 98.3797 13.0957V44.6484L105.382 37.6465H129.903C131.837 37.6465 133.419 36.0645 133.419 34.1309V13.0664C133.448 11.1328 131.866 9.58008 129.932 9.58008ZM110.655 25.3418H107.139V21.8262H110.655V25.3418ZM117.686 25.3418H114.171V21.8262H117.686V25.3418ZM124.688 25.3418H121.173V21.8262H124.688V25.3418Z" fill="#077EFF" stroke="white" stroke-miterlimit="10"/>
<path d="M110.684 21.8262H107.169V25.3418H110.684V21.8262Z" fill="white"/>
<path d="M117.686 21.8262H114.171V25.3418H117.686V21.8262Z" fill="white"/>
<path d="M124.718 21.8262H121.202V25.3418H124.718V21.8262Z" fill="white"/>
<path d="M94.0004 10.2163C94.0004 10.2163 93.8247 5.08931 100.563 5.00142C100.563 4.97212 95.4653 5.35298 94.0004 10.2163Z" fill="#274684" stroke="#077EFF" stroke-miterlimit="10"/>
<path d="M96.5199 10.6558C96.5199 10.6558 96.4028 7.55029 100.475 7.521C100.475 7.521 97.3988 7.72607 96.5199 10.6558Z" fill="#274684" stroke="#077EFF" stroke-miterlimit="10"/>
<path d="M138.253 36.9141C138.253 36.9141 138.429 42.041 131.69 42.1289C131.69 42.1289 136.788 41.7773 138.253 36.9141Z" fill="#077EFF" stroke="#077EFF" stroke-miterlimit="10"/>
<path d="M135.763 36.4746C135.763 36.4746 135.88 39.5801 131.807 39.6094C131.807 39.6094 134.854 39.375 135.763 36.4746Z" fill="#077EFF" stroke="#077EFF" stroke-miterlimit="10"/>
</svg>
