<svg enable-background="new 0 0 140 140" height="512" viewBox="0 0 140 140" width="512" xmlns="http://www.w3.org/2000/svg"><circle cx="70" cy="70" fill="#4abba4" r="64"/><path d="m77.4084015 29.3040752-7.4099731-5.3500366-7.4100342 5.3500366h-20.4699707v14.7899799l-9.9400024 7.1799927-.2000141.1400146v48.5899658l33.8455811 33.8455811c1.3820208.0891114 2.7715472.1503907 4.1760272.1503907 35.3463135 0 64-28.6538086 64-64 0-1.6099854-.0795288-3.2005615-.1963501-4.7807007l-35.9152222-35.9152241z" opacity=".1"/><path d="m108.0263519 51.4135361-38.0263672 33.378601-38.0263633-33.378601.2028007-.143692 37.8235626-27.3197918 37.8235703 27.3197918z" fill="#d6b24e"/><path d="m42.113987 29.301893h55.772003v49.434273h-55.772003z" fill="#ebf0f3"/><path d="m108.0263519 51.4135361v48.5892486h-76.0527305v-48.5892486l31.8069534 22.9679184 6.2194099 4.4955673 6.2194138-4.4955673z" fill="#fed35b"/><path d="m76.2194138 74.3814011h-12.438839l-31.8069477 25.6213379h76.0527325z" fill="#feda6f"/><path d="m45.810993 34.786301h17.60943v13.363545h-17.60943z" fill="#27a2db"/><g fill="#e1e6e9"><path d="m66.461418 34.786301h27.252228v1.094504h-27.252228z"/><path d="m66.461418 40.920818h27.252228v1.094504h-27.252228z"/><path d="m66.461418 47.05534h27.252228v1.094504h-27.252228z"/><path d="m46.286324 53.189861h47.427326v1.094504h-47.427326z"/><path d="m46.286324 59.324383h47.427326v1.094504h-47.427326z"/></g></svg>