<svg id="Layer_3" enable-background="new 0 0 64 64" height="512" viewBox="0 0 64 64" width="512" xmlns="http://www.w3.org/2000/svg"><path d="m46 56.634v5.366h-28v-5.366c2.502.885 5.195 1.366 8 1.366h12c2.805 0 5.498-.481 8-1.366z" fill="#6b823d"/><path d="m38 58h-12c-13.255 0-24-10.745-24-24h60c0 13.255-10.745 24-24 24z" fill="#8ead51"/><path d="m58 34h-56c0 13.255 10.745 24 24 24h8c13.255 0 24-10.745 24-24z" fill="#bde66c"/><path d="m38 46h-4v-4h-4v4h-4v4h4v4h4v-4h4z" fill="#fff"/><path d="m2.338 38h59.324c.218-1.301.338-2.636.338-4h-60c0 1.364.12 2.699.338 4z" fill="#6b823d"/><path d="m2 34c0 1.364.12 2.699.338 4h55.324c.218-1.301.338-2.636.338-4z" fill="#8ead51"/><path d="m34 34 18.586-18.586c.905-.905 2.133-1.414 3.414-1.414 1.281 0 2.509.509 3.414 1.414l1.172 1.172c.905.905 1.414 2.133 1.414 3.414 0 1.281-.509 2.509-1.414 3.414l-10.586 10.586z" fill="#8b6d5e"/><path d="m52.586 15.414-18.586 18.586h12l11.586-11.586c.905-.905 1.414-2.133 1.414-3.414s-.509-2.509-1.414-3.414l-1.172-1.172c-.152-.152-.326-.277-.495-.406-1.251.021-2.447.52-3.333 1.406z" fill="#b9917d"/><circle cx="42" cy="9" fill="#78adbf" r="3"/><ellipse cx="40.5" cy="9" fill="#a0e6ff" rx="1.5" ry="2.584"/><circle cx="8" cy="19" fill="#78adbf" r="3"/><ellipse cx="6.5" cy="19" fill="#a0e6ff" rx="1.5" ry="2.584"/><path d="m29.121 4.879.757-.757c1.359-1.359 3.201-2.122 5.122-2.122 0 1.921-.763 3.763-2.121 5.121l-.757.757c-1.359 1.359-3.201 2.122-5.122 2.122 0-1.921.763-3.763 2.121-5.121z" fill="#8ead51"/><path d="m29.879 4.121-.757.757c-1.198 1.198-1.931 2.773-2.088 4.446.768-.355 1.478-.837 2.088-1.446l.757-.757c1.198-1.198 1.931-2.773 2.088-4.446-.768.355-1.479.837-2.088 1.446z" fill="#bde66c"/><path d="m21.879 24.879-.757-.757c-1.359-1.359-3.201-2.122-5.122-2.122 0 1.921.763 3.763 2.121 5.121l.757.757c1.359 1.359 3.201 2.122 5.122 2.122 0-1.921-.763-3.763-2.121-5.121z" fill="#8ead51"/><path d="m18.879 24.879-.757-.757c-.61-.61-1.32-1.092-2.088-1.446.157 1.673.89 3.248 2.088 4.446l.757.757c.61.61 1.32 1.092 2.088 1.446-.157-1.673-.89-3.248-2.088-4.446z" fill="#bde66c"/><path d="m28.707 21.293 4.586-4.586c.453-.453 1.067-.707 1.707-.707.64 0 1.254.254 1.707.707l.586.586c.453.453.707 1.067.707 1.707 0 .64-.254 1.254-.707 1.707l-4.586 4.586c-.453.453-1.067.707-1.707.707-.64 0-1.254-.254-1.707-.707l-.586-.586c-.453-.453-.707-1.067-.707-1.707 0-.64.254-1.254.707-1.707z" fill="#e6e6e6"/><path d="m35 23-2.293 2.293c-.453.453-1.067.707-1.707.707-.64 0-1.254-.254-1.707-.707l-.586-.586c-.453-.453-.707-1.067-.707-1.707 0-.64.254-1.254.707-1.707l2.293-2.293z" fill="#ff8087"/><path d="m12.707 10.707 4.586 4.586c.453.453 1.067.707 1.707.707.64 0 1.254-.254 1.707-.707l.586-.586c.453-.453.707-1.067.707-1.707 0-.64-.254-1.254-.707-1.707l-4.586-4.586c-.453-.453-1.067-.707-1.707-.707-.64 0-1.254.254-1.707.707l-.586.586c-.453.453-.707 1.067-.707 1.707 0 .64.254 1.254.707 1.707z" fill="#e6e6e6"/><path d="m19 9-2.293-2.293c-.453-.453-1.067-.707-1.707-.707-.64 0-1.254.254-1.707.707l-.586.586c-.453.453-.707 1.067-.707 1.707 0 .64.254 1.254.707 1.707l2.293 2.293z" fill="#ff8087"/><path d="m53 16.343h2v11.314h-2z" fill="#e6e6e6" transform="matrix(.707 -.707 .707 .707 .26 44.627)"/></svg>